<?xml version="1.0" standalone="no"?>
<!DOCTYPE svg PUBLIC "-//W3C//DTD SVG 20010904//EN"
 "http://www.w3.org/TR/2001/REC-SVG-20010904/DTD/svg10.dtd">
<svg version="1.0" xmlns="http://www.w3.org/2000/svg"
 width="1804.000000pt" height="1804.000000pt" viewBox="0 0 1804.000000 1804.000000"
 preserveAspectRatio="xMidYMid meet">
<metadata>
Created by potrace 1.14, written by Peter Selinger 2001-2017
</metadata>
<g transform="translate(0.000000,1804.000000) scale(0.100000,-0.100000)"
fill="#000000" stroke="none">
<path d="M8605 17550 c-1044 -42 -2083 -265 -3050 -653 -1122 -449 -2140
-1116 -2976 -1947 -695 -692 -1227 -1424 -1650 -2270 -485 -971 -763 -1992
-851 -3130 -16 -211 -16 -906 0 -1105 65 -792 191 -1419 418 -2087 278 -817
662 -1553 1184 -2273 388 -534 922 -1099 1480 -1565 1065 -889 2409 -1545
3797 -1854 662 -147 1200 -211 1888 -223 742 -13 1442 54 2123 202 1157 253
2186 686 3147 1326 769 512 1434 1121 2010 1839 380 474 740 1044 1004 1590
585 1212 863 2522 820 3863 -37 1158 -308 2265 -812 3318 -260 544 -655 1168
-1040 1642 -261 323 -752 835 -1042 1087 -983 855 -2080 1462 -3344 1851 -633
195 -1344 325 -2039 374 -256 18 -805 26 -1067 15z m1015 -1169 c1200 -102
2257 -418 3255 -974 536 -298 1075 -688 1510 -1094 644 -600 1178 -1309 1575
-2088 485 -954 744 -1994 767 -3085 22 -1068 -187 -2093 -632 -3085 -255 -570
-633 -1173 -1038 -1659 -824 -986 -1847 -1730 -3057 -2224 -767 -312 -1611
-502 -2498 -562 -224 -15 -802 -12 -1042 5 -996 70 -1892 298 -2795 709 -666
304 -1363 760 -1920 1257 -132 118 -483 470 -616 619 -516 575 -973 1293
-1268 1993 -299 708 -469 1380 -547 2157 -22 221 -30 838 -15 1082 89 1381
545 2647 1364 3788 328 456 819 984 1247 1340 1013 843 2147 1394 3435 1669
337 72 746 130 1070 151 94 6 193 12 220 14 100 7 864 -3 985 -13z"/>
<path d="M8775 15684 c-383 -12 -821 -61 -1170 -130 -1214 -240 -2303 -759
-3245 -1547 -175 -147 -506 -470 -678 -662 -616 -689 -1074 -1474 -1356 -2326
-586 -1771 -375 -3699 582 -5314 711 -1200 1815 -2177 3119 -2761 553 -248
1158 -431 1758 -533 607 -103 1332 -127 1950 -65 1398 141 2684 660 3767 1520
436 346 871 794 1204 1237 445 593 805 1294 1019 1983 288 925 362 1906 219
2869 -256 1719 -1220 3291 -2669 4350 -1093 798 -2391 1272 -3745 1364 -161
11 -601 20 -755 15z m3875 -3764 c283 -14 507 -45 740 -102 152 -36 358 -102
421 -134 l46 -23 -87 -296 c-49 -163 -90 -299 -93 -301 -2 -2 -35 9 -73 24
-262 108 -556 176 -886 203 -169 14 -588 6 -723 -15 -467 -71 -819 -217 -1130
-469 -326 -264 -563 -652 -679 -1112 -55 -218 -77 -419 -77 -700 0 -472 79
-850 253 -1200 297 -598 819 -964 1541 -1081 135 -21 579 -30 759 -15 242 21
476 69 596 121 l42 19 0 855 0 856 -580 0 -580 0 0 300 0 300 943 -2 942 -3 0
-1380 0 -1380 -155 -52 c-538 -180 -1199 -278 -1745 -259 -758 26 -1292 197
-1795 575 -439 329 -751 828 -909 1457 -32 128 -62 297 -83 464 -17 139 -17
622 0 760 66 535 226 982 493 1370 192 281 426 510 725 711 438 294 1006 473
1614 508 198 12 264 12 480 1z m-6480 -34 c598 -70 1049 -214 1414 -452 153
-100 249 -179 383 -315 146 -148 201 -215 305 -374 138 -209 240 -440 313
-704 158 -575 148 -1336 -25 -1940 -126 -438 -315 -782 -608 -1107 -383 -425
-970 -713 -1707 -838 -217 -37 -408 -55 -679 -67 -398 -16 -1219 15 -1533 57
l-43 6 0 2823 0 2822 158 22 c205 27 506 57 712 71 91 5 185 12 210 14 25 2
252 2 505 1 338 -3 496 -8 595 -19z"/>
<path d="M5215 11313 c-83 -5 -373 -41 -434 -54 l-51 -11 0 -2263 0 -2263 43
-6 c228 -33 886 -40 1122 -12 1046 124 1695 664 1935 1611 56 223 90 525 90
804 0 478 -93 887 -277 1217 -81 148 -168 260 -302 394 -324 323 -773 513
-1358 575 -127 14 -584 18 -768 8z"/>
</g>
</svg>
